<?xml version="1.0" encoding="utf-8"?>
<!-- Generator: Adobe Illustrator 23.0.2, SVG Export Plug-In . SVG Version: 6.00 Build 0)  -->
<svg version="1.1" id="Layer_1" xmlns="http://www.w3.org/2000/svg" xmlns:xlink="http://www.w3.org/1999/xlink" x="0px" y="0px"
	 viewBox="0 0 259.7 72.1" style="enable-background:new 0 0 259.7 72.1;" xml:space="preserve">
<g>
	<path d="M11.3,1.2l18.1,55.3l18-55.3h9.8L33.8,70.5h-8.7L1.5,1.2H11.3z"/>
	<path d="M114.7,1.2v8.1H84.3V32h30.4v8.1H84.3v22.3h30.4v8.1H75.3V1.2H114.7z"/>
	<path d="M172.3,47.7l14.1,22.8h-10.3L162.7,49h-14.5v21.5h-9V1.2h24.9c13.6,0,23.3,10,23.3,24C187.4,36,181.4,44.6,172.3,47.7z
		 M163.6,40.9c8.5,0,14.8-6.6,14.8-15.8s-6.2-15.9-14.8-15.9h-15.4v31.6L163.6,40.9L163.6,40.9z"/>
	<path d="M216.1,59.9l-3.3,10.6H203l23.5-69.4h8L258,70.5h-9.8L245,59.9H216.1z M230.5,13.7l-11.8,38h23.7L230.5,13.7z"/>
</g>
</svg>
